<svg width="159" height="75" viewBox="0 0 159 75" fill="none" xmlns="http://www.w3.org/2000/svg">
<circle cx="4.5" cy="70.5" r="4.5" transform="rotate(-90 4.5 70.5)" fill="black"/>
<circle cx="87.5" cy="70.5" r="4.5" transform="rotate(-90 87.5 70.5)" fill="black"/>
<circle cx="21.5" cy="70.5" r="4.5" transform="rotate(-90 21.5 70.5)" fill="black"/>
<circle cx="104.5" cy="70.5" r="4.5" transform="rotate(-90 104.5 70.5)" fill="black"/>
<circle cx="37.5" cy="70.5" r="4.5" transform="rotate(-90 37.5 70.5)" fill="black"/>
<circle cx="120.5" cy="70.5" r="4.5" transform="rotate(-90 120.5 70.5)" fill="black"/>
<circle cx="54.5" cy="70.5" r="4.5" transform="rotate(-90 54.5 70.5)" fill="black"/>
<circle cx="137.5" cy="70.5" r="4.5" transform="rotate(-90 137.5 70.5)" fill="black"/>
<ellipse cx="71" cy="70.5" rx="4.5" ry="5" transform="rotate(-90 71 70.5)" fill="black"/>
<ellipse cx="154" cy="70.5" rx="4.5" ry="5" transform="rotate(-90 154 70.5)" fill="black"/>
<circle cx="4.5" cy="53.5" r="4.5" transform="rotate(-90 4.5 53.5)" fill="black"/>
<circle cx="87.5" cy="53.5" r="4.5" transform="rotate(-90 87.5 53.5)" fill="black"/>
<circle cx="21.5" cy="53.5" r="4.5" transform="rotate(-90 21.5 53.5)" fill="black"/>
<circle cx="104.5" cy="53.5" r="4.5" transform="rotate(-90 104.5 53.5)" fill="black"/>
<circle cx="37.5" cy="53.5" r="4.5" transform="rotate(-90 37.5 53.5)" fill="black"/>
<circle cx="120.5" cy="53.5" r="4.5" transform="rotate(-90 120.5 53.5)" fill="black"/>
<circle cx="54.5" cy="53.5" r="4.5" transform="rotate(-90 54.5 53.5)" fill="black"/>
<circle cx="137.5" cy="53.5" r="4.5" transform="rotate(-90 137.5 53.5)" fill="black"/>
<ellipse cx="71" cy="53.5" rx="4.5" ry="5" transform="rotate(-90 71 53.5)" fill="black"/>
<ellipse cx="154" cy="53.5" rx="4.5" ry="5" transform="rotate(-90 154 53.5)" fill="black"/>
<circle cx="4.5" cy="37.5" r="4.5" transform="rotate(-90 4.5 37.5)" fill="white"/>
<circle cx="87.5" cy="37.5" r="4.5" transform="rotate(-90 87.5 37.5)" fill="white"/>
<circle cx="21.5" cy="37.5" r="4.5" transform="rotate(-90 21.5 37.5)" fill="white"/>
<circle cx="104.5" cy="37.5" r="4.5" transform="rotate(-90 104.5 37.5)" fill="white"/>
<circle cx="37.5" cy="37.5" r="4.5" transform="rotate(-90 37.5 37.5)" fill="white"/>
<circle cx="120.5" cy="37.5" r="4.5" transform="rotate(-90 120.5 37.5)" fill="white"/>
<circle cx="54.5" cy="37.5" r="4.5" transform="rotate(-90 54.5 37.5)" fill="white"/>
<circle cx="137.5" cy="37.5" r="4.5" transform="rotate(-90 137.5 37.5)" fill="white"/>
<ellipse cx="71" cy="37.5" rx="4.5" ry="5" transform="rotate(-90 71 37.5)" fill="white"/>
<ellipse cx="154" cy="37.5" rx="4.5" ry="5" transform="rotate(-90 154 37.5)" fill="white"/>
<circle cx="4.5" cy="20.5" r="4.5" transform="rotate(-90 4.5 20.5)" fill="white"/>
<circle cx="4.5" cy="4.5" r="4.5" transform="rotate(-90 4.5 4.5)" fill="white"/>
<circle cx="87.5" cy="20.5" r="4.5" transform="rotate(-90 87.5 20.5)" fill="white"/>
<circle cx="87.5" cy="4.5" r="4.5" transform="rotate(-90 87.5 4.5)" fill="white"/>
<circle cx="21.5" cy="20.5" r="4.5" transform="rotate(-90 21.5 20.5)" fill="white"/>
<circle cx="21.5" cy="4.5" r="4.5" transform="rotate(-90 21.5 4.5)" fill="white"/>
<circle cx="104.5" cy="20.5" r="4.5" transform="rotate(-90 104.5 20.5)" fill="white"/>
<circle cx="104.5" cy="4.5" r="4.5" transform="rotate(-90 104.5 4.5)" fill="white"/>
<circle cx="37.5" cy="20.5" r="4.5" transform="rotate(-90 37.5 20.5)" fill="white"/>
<circle cx="37.5" cy="4.5" r="4.5" transform="rotate(-90 37.5 4.5)" fill="white"/>
<circle cx="120.5" cy="20.5" r="4.5" transform="rotate(-90 120.5 20.5)" fill="white"/>
<circle cx="120.5" cy="4.5" r="4.5" transform="rotate(-90 120.5 4.5)" fill="white"/>
<circle cx="54.5" cy="20.5" r="4.5" transform="rotate(-90 54.5 20.5)" fill="white"/>
<circle cx="54.5" cy="4.5" r="4.5" transform="rotate(-90 54.5 4.5)" fill="white"/>
<circle cx="137.5" cy="20.5" r="4.5" transform="rotate(-90 137.5 20.5)" fill="white"/>
<circle cx="137.5" cy="4.5" r="4.5" transform="rotate(-90 137.5 4.5)" fill="white"/>
<ellipse cx="71" cy="20.5" rx="4.5" ry="5" transform="rotate(-90 71 20.5)" fill="white"/>
<ellipse cx="71" cy="4.5" rx="4.5" ry="5" transform="rotate(-90 71 4.5)" fill="white"/>
<ellipse cx="154" cy="20.5" rx="4.5" ry="5" transform="rotate(-90 154 20.5)" fill="white"/>
<ellipse cx="154" cy="4.5" rx="4.5" ry="5" transform="rotate(-90 154 4.5)" fill="white"/>
</svg>
