<svg width="24" height="25" viewBox="0 0 24 25" fill="none" xmlns="http://www.w3.org/2000/svg">
<g clip-path="url(#clip0_11_76)">
<path d="M13.6203 24.0001H9.76944C9.12622 24.0001 8.60298 23.4769 8.60298 22.8336V14.1477H6.35628C5.71306 14.1477 5.18982 13.6243 5.18982 12.9813V9.25933C5.18982 8.6161 5.71306 8.09286 6.35628 8.09286H8.60298V6.22905C8.60298 4.38102 9.18328 2.80874 10.2809 1.68245C11.3836 0.551033 12.9245 -0.046875 14.7371 -0.046875L17.674 -0.042105C18.3161 -0.0410042 18.8384 0.482235 18.8384 1.12436V4.58008C18.8384 5.22331 18.3154 5.74654 17.6723 5.74654L15.695 5.74728C15.0919 5.74728 14.9384 5.86818 14.9055 5.90524C14.8514 5.9667 14.787 6.14044 14.787 6.6202V8.09268H17.5237C17.7298 8.09268 17.9294 8.1435 18.1009 8.23927C18.4709 8.44603 18.701 8.83699 18.701 9.25951L18.6995 12.9814C18.6995 13.6243 18.1763 14.1475 17.5331 14.1475H14.787V22.8336C14.787 23.4769 14.2636 24.0001 13.6203 24.0001ZM10.0127 22.5904H13.3771V13.5166C13.3771 13.0871 13.7266 12.7378 14.1559 12.7378H17.2898L17.2911 9.5026H14.1557C13.7264 9.5026 13.3771 9.15328 13.3771 8.72379V6.6202C13.3771 6.06944 13.433 5.4431 13.8488 4.97233C14.3511 4.40322 15.1427 4.33754 15.6946 4.33754L17.4287 4.33681V1.36726L14.736 1.36286C11.823 1.36286 10.0127 3.22759 10.0127 6.22905V8.72379C10.0127 9.1531 9.6634 9.5026 9.2341 9.5026H6.59956V12.7378H9.2341C9.6634 12.7378 10.0127 13.0871 10.0127 13.5166V22.5904ZM17.6712 1.36763H17.6714H17.6712Z" fill="white"/>
</g>
<defs>
<clipPath id="clip0_11_76">
<rect width="24" height="24.047" fill="white"/>
</clipPath>
</defs>
</svg>
