<svg width="24" height="24" viewBox="0 0 24 24" fill="none" xmlns="http://www.w3.org/2000/svg">
<g clip-path="url(#clip0_11_70)">
<path d="M23.9765 7.05607C23.9203 5.78085 23.7141 4.90416 23.4187 4.14449C23.1139 3.33812 22.6451 2.61617 22.0308 2.01602C21.4307 1.40652 20.704 0.932921 19.907 0.632936C19.1429 0.337529 18.2708 0.131312 16.9956 0.0750879C15.7108 0.0141019 15.303 0 12.0445 0C8.78606 0 8.37821 0.0141019 7.09823 0.0703262C5.82302 0.126551 4.94632 0.332951 4.18683 0.628174C3.38028 0.932922 2.65833 1.40176 2.05818 2.01602C1.44869 2.61617 0.975265 3.34288 0.675097 4.13991C0.37969 4.90416 0.173472 5.77609 0.117248 7.0513C0.0562619 8.33604 0.04216 8.7439 0.04216 12.0023C0.04216 15.2608 0.0562619 15.6686 0.112486 16.9486C0.168711 18.2238 0.375111 19.1005 0.670518 19.8602C0.975265 20.6666 1.44869 21.3885 2.05818 21.9887C2.65833 22.5982 3.38504 23.0718 4.18207 23.3718C4.94632 23.6672 5.81826 23.8734 7.09365 23.9296C8.37345 23.986 8.78148 23.9999 12.0399 23.9999C15.2984 23.9999 15.7062 23.986 16.9862 23.9296C18.2614 23.8734 19.1381 23.6672 19.8976 23.3718C21.5105 22.7482 22.7858 21.4729 23.4094 19.8602C23.7046 19.096 23.911 18.2238 23.9672 16.9486C24.0234 15.6686 24.0375 15.2608 24.0375 12.0023C24.0375 8.7439 24.0328 8.33604 23.9765 7.05607ZM21.8153 16.8549C21.7636 18.027 21.5668 18.6599 21.4027 19.0819C20.9994 20.1274 20.1696 20.9572 19.124 21.3605C18.7021 21.5246 18.0646 21.7215 16.897 21.7729C15.6312 21.8293 15.2515 21.8433 12.0493 21.8433C8.84705 21.8433 8.46264 21.8293 7.20134 21.7729C6.02924 21.7215 5.3963 21.5246 4.97434 21.3605C4.45404 21.1682 3.98043 20.8634 3.59602 20.4649C3.1975 20.0758 2.89276 19.6069 2.70046 19.0866C2.53636 18.6647 2.33949 18.027 2.28802 16.8596C2.23162 15.5937 2.2177 15.2139 2.2177 12.0117C2.2177 8.80946 2.23162 8.42505 2.28802 7.16394C2.33949 5.99183 2.53636 5.3589 2.70046 4.93694C2.89276 4.41645 3.1975 3.94303 3.60078 3.55843C3.98977 3.15992 4.45861 2.85517 4.9791 2.66306C5.40106 2.49896 6.03876 2.30209 7.2061 2.25044C8.47198 2.19422 8.85181 2.18011 12.0539 2.18011C15.2608 2.18011 15.6405 2.19422 16.9018 2.25044C18.0739 2.30209 18.7068 2.49896 19.1288 2.66306C19.6491 2.85517 20.1227 3.15992 20.5071 3.55843C20.9056 3.94761 21.2104 4.41645 21.4027 4.93694C21.5668 5.3589 21.7636 5.99641 21.8153 7.16394C21.8715 8.42981 21.8856 8.80946 21.8856 12.0117C21.8856 15.2139 21.8715 15.589 21.8153 16.8549Z" fill="white"/>
<path d="M12.0445 5.83691C8.64083 5.83691 5.87924 8.59832 5.87924 12.0022C5.87924 15.406 8.64083 18.1674 12.0445 18.1674C15.4484 18.1674 18.2098 15.406 18.2098 12.0022C18.2098 8.59832 15.4484 5.83691 12.0445 5.83691ZM12.0445 16.0014C9.83637 16.0014 8.04525 14.2105 8.04525 12.0022C8.04525 9.79386 9.83637 8.00293 12.0445 8.00293C14.2528 8.00293 16.0438 9.79386 16.0438 12.0022C16.0438 14.2105 14.2528 16.0014 12.0445 16.0014Z" fill="white"/>
<path d="M19.893 5.59312C19.893 6.38795 19.2486 7.03243 18.4535 7.03243C17.6587 7.03243 17.0142 6.38795 17.0142 5.59312C17.0142 4.7981 17.6587 4.15381 18.4535 4.15381C19.2486 4.15381 19.893 4.7981 19.893 5.59312Z" fill="white"/>
</g>
<defs>
<clipPath id="clip0_11_70">
<rect width="24" height="24" fill="white"/>
</clipPath>
</defs>
</svg>
