<svg width="124" height="57" viewBox="0 0 124 57" fill="none" xmlns="http://www.w3.org/2000/svg">
<g clip-path="url(#clip0_1_4)">
<path d="M0.657902 55.3871V55.5349C0.657902 56.2217 1.09168 56.4393 1.50508 56.4393C2.01562 56.4393 2.40743 56.2217 2.40743 55.619C2.40743 54.497 0.139998 54.6231 0.139998 53.1017C0.139998 52.2047 0.776968 51.7276 1.62363 51.7276C2.54757 51.7276 3.06581 52.1762 3.02384 53.2073H2.35175C2.3586 52.6534 2.18351 52.2888 1.57447 52.2888C1.18985 52.2888 0.79787 52.4848 0.79787 53.0319C0.79787 54.1463 3.06581 53.985 3.06581 55.5905C3.06581 56.6564 2.33033 57 1.49771 57C0.00688246 57.0137 0.0068825 55.8713 0.0209308 55.3871H0.657902Z" fill="white"/>
<path d="M5.3118 51.8326H5.99761L6.94964 56.2217H6.96336L7.97806 51.8326H8.81154L9.72813 56.2217H9.74217L10.7709 51.8326H11.4425L10.1059 56.895H9.32209L8.36305 52.5062H8.34932L7.32739 56.895H6.5436L5.3118 51.8326Z" fill="white"/>
<path d="M14.5645 56.895H13.9203V51.8326H14.5645V56.895Z" fill="white"/>
<path d="M18.05 55.3871V55.5349C18.05 56.2217 18.4835 56.4393 18.8967 56.4393C19.4072 56.4393 19.7995 56.2217 19.7995 55.619C19.7995 54.497 17.5321 54.6231 17.5321 53.1017C17.5321 52.2047 18.1691 51.7276 19.0157 51.7276C19.9392 51.7276 20.4574 52.1762 20.4154 53.2073H19.7439C19.7507 52.6534 19.5756 52.2888 18.9666 52.2888C18.582 52.2888 18.1896 52.4848 18.1896 53.0319C18.1896 54.1463 20.4574 53.985 20.4574 55.5905C20.4574 56.6564 19.7225 57 18.8895 57C17.3985 57.0137 17.3985 55.8713 17.413 55.3871H18.05Z" fill="white"/>
<path d="M23.719 55.3871V55.5349C23.719 56.2217 24.1528 56.4393 24.5657 56.4393C25.077 56.4393 25.4685 56.2217 25.4685 55.619C25.4685 54.497 23.2008 54.6231 23.2008 53.1017C23.2008 52.2047 23.8381 51.7276 24.6847 51.7276C25.6087 51.7276 26.1269 52.1762 26.0844 53.2073H25.4125C25.4194 52.6534 25.2446 52.2888 24.6356 52.2888C24.2505 52.2888 23.859 52.4848 23.859 53.0319C23.859 54.1463 26.1269 53.985 26.1269 55.5905C26.1269 56.6564 25.3914 57 24.5588 57C23.0683 57.0137 23.0683 55.8713 23.082 55.3871H23.719Z" fill="white"/>
<path d="M31.7046 51.8326H32.3904L33.3424 56.2217H33.3561L34.3712 51.8326H35.2044L36.1209 56.2217H36.1349L37.1637 51.8326H37.8359L36.4987 56.895H35.7149L34.7558 52.5062H34.7421L33.7202 56.895H32.9364L31.7046 51.8326Z" fill="white"/>
<path d="M42.3159 55.1282H40.6989L41.4896 52.4286H41.5038L42.3159 55.1282ZM39.5096 56.895H40.1601L40.5384 55.6888H42.4909L42.8547 56.895H43.5754L41.9312 51.8326H41.1115L39.5096 56.895Z" fill="white"/>
<path d="M48.3426 51.8326V52.3938H47.0119V56.895H46.3685V52.3938H45.0383V51.8326H48.3426Z" fill="white"/>
<path d="M53.0104 53.2278C53.0174 52.9404 52.9959 52.6534 52.8635 52.4921C52.7306 52.3308 52.4293 52.2745 52.296 52.2745C51.7644 52.2745 51.5547 52.5971 51.5333 52.667C51.5122 52.7229 51.3863 52.8494 51.3863 53.7187V55.0719C51.3863 56.3127 51.7925 56.4597 52.2894 56.4597C52.4854 56.4597 53.0801 56.3899 53.0872 55.4014H53.752C53.7801 57 52.653 57 52.3245 57C51.6947 57 50.728 56.9576 50.728 54.9947V53.5647C50.728 52.1341 51.3587 51.7276 52.3521 51.7276C53.3525 51.7276 53.738 52.2467 53.6748 53.2278H53.0104Z" fill="white"/>
<path d="M56.4954 56.895V51.8326H57.1392V54.0204H58.9102V51.8326H59.554V56.895H58.9102V54.581H57.1392V56.895H56.4954Z" fill="white"/>
<path d="M62.5079 56.895V51.8326H65.1117V52.3938H63.1513V54.0204H64.9718V54.581H63.1513V56.3341H65.1534V56.895H62.5079Z" fill="white"/>
<path d="M68.2748 55.3871V55.5349C68.2748 56.2217 68.7085 56.4393 69.1217 56.4393C69.6331 56.4393 70.0243 56.2217 70.0243 55.619C70.0243 54.497 67.7568 54.6231 67.7568 53.1017C67.7568 52.2047 68.3936 51.7276 69.2405 51.7276C70.165 51.7276 70.6826 52.1762 70.6405 53.2073H69.9686C69.9756 52.6534 69.8001 52.2888 69.1914 52.2888C68.8068 52.2888 68.4147 52.4848 68.4147 53.0319C68.4147 54.1463 70.6826 53.985 70.6826 55.5905C70.6826 56.6564 69.9475 57 69.1146 57C67.6244 57.0137 67.6244 55.8713 67.6379 55.3871H68.2748Z" fill="white"/>
<path d="M77.2758 55.3871V55.5349C77.2758 56.2217 77.7091 56.4393 78.1227 56.4393C78.6332 56.4393 79.0257 56.2217 79.0257 55.619C79.0257 54.497 76.7578 54.6231 76.7578 53.1017C76.7578 52.2047 77.3947 51.7276 78.2411 51.7276C79.1648 51.7276 79.6832 52.1762 79.6411 53.2073H78.9696C78.9762 52.6534 78.8012 52.2888 78.192 52.2888C77.8074 52.2888 77.4153 52.4848 77.4153 53.0319C77.4153 54.1463 79.6832 53.985 79.6832 55.5905C79.6832 56.6564 78.9481 57 78.1152 57C76.6245 57.0137 76.6245 55.8713 76.6385 55.3871H77.2758Z" fill="white"/>
<path d="M83.1821 56.895H82.5388V51.8326H83.1821V56.895Z" fill="white"/>
<path d="M89.6775 51.8326V56.895H88.796L86.8009 52.5062H86.7873V56.895H86.2127V51.8326H87.1224L89.0898 56.1654H89.1034V51.8326H89.6775Z" fill="white"/>
<path d="M94.8497 53.2278C94.8563 52.9404 94.8361 52.6534 94.7028 52.4921C94.5695 52.3308 94.2681 52.2745 94.1361 52.2745C93.6037 52.2745 93.3936 52.5971 93.3721 52.667C93.352 52.7229 93.2257 52.8494 93.2257 53.7187V55.0719C93.2257 56.3127 93.6318 56.4597 94.1282 56.4597C94.3247 56.4597 94.9194 56.3899 94.9269 55.4014H95.5918C95.6194 57 94.4927 57 94.1638 57C93.534 57 92.5682 56.9576 92.5682 54.9947V53.5647C92.5682 52.1341 93.1976 51.7276 94.1923 51.7276C95.1927 51.7276 95.5773 52.2467 95.5146 53.2278H94.8497Z" fill="white"/>
<path d="M98.293 56.895V51.8326H100.896V52.3938H98.9369V54.0204H100.757V54.581H98.9369V56.3341H100.939V56.895H98.293Z" fill="white"/>
<path d="M108.358 56.895H107.714V52.737L106.986 53.2278V52.6109C107.147 52.5409 107.608 52.1904 107.805 52.0291H108.358V56.895Z" fill="white"/>
<path d="M112.773 56.4597C112.291 56.4597 112.122 56.0115 112.122 55.5905C112.122 55.156 112.172 54.5953 112.773 54.5953C113.375 54.5953 113.424 55.156 113.424 55.5905C113.424 56.0115 113.257 56.4597 112.773 56.4597ZM113.172 54.3145C113.747 54.2026 114.02 53.7255 114.02 53.1717C114.02 52.408 113.537 51.9519 112.773 51.9519C112.011 51.9519 111.528 52.408 111.528 53.1717C111.528 53.7255 111.801 54.2026 112.375 54.3145V54.3078V54.3219C111.661 54.3918 111.479 54.9526 111.479 55.5838C111.479 56.4597 111.926 57 112.773 57C113.621 57 114.068 56.4597 114.068 55.5838C114.068 54.9526 113.887 54.3918 113.172 54.3219V54.3078V54.3145ZM112.773 54.0341C112.291 54.0341 112.172 53.5084 112.172 53.1511C112.172 52.7863 112.36 52.4216 112.773 52.4216C113.187 52.4216 113.375 52.7863 113.375 53.1511C113.375 53.5084 113.257 54.0341 112.773 54.0341Z" fill="white"/>
<path d="M118.785 52.0291V52.5899H117.162V54.0061L117.176 54.0204C117.281 53.8101 117.616 53.6555 117.946 53.6555C118.638 53.6555 118.96 54.1743 118.96 55.2964C118.96 56.0746 118.862 57 117.645 57C116.637 57 116.448 56.4462 116.448 55.7939H117.092C117.092 56.1728 117.239 56.5303 117.666 56.5303C118.275 56.5303 118.316 55.9343 118.316 55.4577C118.316 54.7492 118.296 54.1954 117.694 54.1954C117.344 54.1954 117.155 54.4407 117.099 54.7633H116.518V52.0291H118.785Z" fill="white"/>
<path d="M122.166 54.0623C122.747 54.1112 123.16 53.88 123.16 53.2562C123.16 52.8143 122.963 52.4921 122.488 52.4921C121.956 52.4921 121.872 52.8915 121.879 53.284H121.235C121.186 52.4568 121.585 51.9519 122.488 51.9519C123.313 51.9519 123.804 52.3655 123.804 53.2141C123.804 54.1323 123.125 54.2725 122.845 54.3425V54.3566C123.608 54.4618 123.853 54.8685 123.853 55.5975C123.853 56.5444 123.342 57 122.411 57C121.053 57 121.158 55.8292 121.158 55.5555H121.802C121.809 56.0393 121.886 56.4597 122.467 56.4597C123.034 56.4597 123.209 56.1024 123.209 55.5838C123.209 54.7981 122.915 54.6305 122.166 54.6305V54.0623Z" fill="white"/>
<path d="M61.1219 18.6907V0.39188H42.4935V18.6907H61.1219Z" fill="black"/>
<path d="M61.1219 18.6907V0.39188H42.4935V18.6907H61.1219Z" stroke="white" stroke-width="1.86667"/>
<path d="M58.8176 2.84736H44.994V5.9469H49.8465V16.4438H54.0397V5.9469H58.8176V2.84736Z" fill="white"/>
<path d="M22.6546 24.3421H0V29.0907H8.13344V44.7371H14.6715V29.0907H22.6546V24.3421Z" fill="white"/>
<path d="M31.2883 44.7371V24.3421H24.6505V44.7371H31.2883Z" fill="white"/>
<path d="M124.002 24.3421H101.348V29.0907H109.482V44.7371H116.017V29.0907H124.002V24.3421Z" fill="white"/>
<path d="M78.5349 34.4889C78.5266 27.3917 83.8097 23.8851 90.3183 23.8851C96.8277 23.8851 102.096 27.8422 102.104 34.4889C102.113 41.1875 96.8277 45.0932 90.3183 45.0932C83.8097 45.0932 78.5428 42.0376 78.5349 34.4889ZM90.3183 41.4884C93.7611 41.4884 95.3992 38.3546 95.3992 34.4889C95.3992 30.6236 93.5125 27.4918 90.3183 27.4907C86.575 27.4907 85.1386 30.6236 85.1386 34.4889C85.1386 38.3546 86.6272 41.4884 90.3183 41.4884Z" fill="white"/>
<path d="M76.2464 30.9396C74.2846 30.9396 72.3229 30.9396 70.3589 30.9396C70.087 29.9054 69.566 28.9895 68.6392 28.3777C67.495 27.6208 66.1827 27.5347 64.8801 27.8744C63.9012 28.13 62.8158 28.9835 63.2245 30.1226C63.4679 30.8064 64.1911 31.1153 64.8801 31.3024C68.1607 32.1953 71.4497 32.3678 74.4254 34.1809C75.8907 35.075 76.6889 36.6182 76.6674 38.2376C76.5758 45.1829 68.0967 46.0345 62.5824 44.9027C59.0207 44.1716 55.6252 41.5356 55.8866 37.6381C57.9506 37.6381 60.0119 37.6381 62.075 37.6381C62.4539 38.4756 62.3035 39.3397 62.8785 40.1346C63.1986 40.5776 63.5513 40.9603 63.9955 41.1889C64.3512 41.3713 64.6872 41.597 65.0797 41.6986C66.1073 41.9643 67.163 41.9861 68.1414 41.6682C68.862 41.4343 69.4931 40.9486 69.8243 40.2215C69.9993 39.8336 69.9953 39.368 69.8502 38.9421C69.7668 38.7009 69.6168 38.4753 69.4949 38.2803C69.0217 37.53 68.1678 37.3467 67.3489 37.0895C63.7534 35.9568 59.0128 36.4119 57.0405 32.6102C56.4581 31.4874 56.4278 30.2165 56.7274 28.95C56.9405 28.0421 57.5243 27.3107 58.1519 26.7138C58.7475 26.1509 59.401 25.5991 60.1816 25.2457C63.9995 23.5169 68.3835 23.7045 72.111 25.3409C74.3228 26.3111 76.1508 28.372 76.2464 30.9396Z" fill="white"/>
<path d="M53.8021 30.8546C51.8394 30.8546 49.8794 30.8546 47.9163 30.8546C47.6431 29.8192 47.1225 28.9033 46.1953 28.291C45.0528 27.5347 43.739 27.4475 42.4361 27.7882C41.4576 28.0435 40.3723 28.8964 40.7808 30.0358C41.0241 30.719 41.7474 31.0288 42.4375 31.2153C45.7181 32.1091 49.0084 32.2807 51.9819 34.0951C53.449 34.9889 54.245 36.532 54.2244 38.1504C54.1341 45.0966 45.6528 45.9487 40.1384 44.8151C36.5775 44.0836 33.1805 41.4492 33.4458 37.5518C35.5096 37.5518 37.5698 37.5518 39.6313 37.5518C40.0099 38.3901 39.8621 39.2542 40.4351 40.0476C40.7546 40.4909 41.1075 40.8736 41.553 41.1027C41.9073 41.2841 42.2434 41.5103 42.6357 41.6123C43.6636 41.8779 44.7204 41.8997 45.698 41.5819C46.4181 41.3481 47.051 40.8624 47.3804 40.1346C47.5558 39.7473 47.5545 39.2813 47.4067 38.8545C47.3229 38.6143 47.1755 38.3872 47.051 38.1928C46.5769 37.4425 45.7251 37.2606 44.9081 37.0036C41.3128 35.8704 36.5693 36.3252 34.5965 32.5251C34.0146 31.4003 33.984 30.1304 34.2835 28.8642C34.4968 27.9541 35.0805 27.2239 35.7092 26.6277C36.3043 26.0634 36.9573 25.512 37.7394 25.159C41.5561 23.4308 45.9396 23.6183 49.6675 25.2548C51.8793 26.2247 53.706 28.285 53.8021 30.8546Z" fill="white"/>
<path d="M81.9795 18.7585V0.305756H63.3271V18.7585H81.9795Z" fill="#ED1C24"/>
<path d="M81.9795 18.7585V0.305756H63.3271V18.7585H81.9795Z" stroke="white" stroke-width="1.86667"/>
<path d="M79.4915 7.43232H74.7057V2.70063H70.6677V7.43232H65.8819V11.527H70.6677V16.2834H74.7057V11.527H79.4915V7.43232Z" fill="white"/>
</g>
<defs>
<clipPath id="clip0_1_4">
<rect width="124" height="57" fill="white"/>
</clipPath>
</defs>
</svg>
