<svg width="54" height="27" viewBox="0 0 54 27" fill="none" xmlns="http://www.w3.org/2000/svg">
<mask id="path-1-inside-1_11_7" fill="white">
<path d="M52.655 0C53.3978 0 54.0035 0.60257 53.9665 1.34449C53.8126 4.43084 53.1299 7.47135 51.9447 10.3325C50.5879 13.6082 48.5991 16.5847 46.0919 19.0919C43.5847 21.5991 40.6082 23.5879 37.3325 24.9447C34.0567 26.3016 30.5457 27 27 27C23.4543 27 19.9433 26.3016 16.6675 24.9447C13.3918 23.5879 10.4153 21.5991 7.90812 19.0919C5.40093 16.5847 3.41213 13.6082 2.05525 10.3325C0.870144 7.47135 0.18737 4.43084 0.0334944 1.34449C-0.00349528 0.602568 0.602192 -1.90735e-06 1.34503 -1.90735e-06C2.08788 -1.90735e-06 2.68619 0.602665 2.72727 1.34437C2.87863 4.07726 3.49065 6.76833 4.54055 9.30301C5.76224 12.2524 7.55289 14.9323 9.81028 17.1897C12.0677 19.4471 14.7476 21.2378 17.697 22.4594C20.6464 23.6811 23.8076 24.3099 27 24.3099C30.1924 24.3099 33.3536 23.6811 36.303 22.4594C39.2524 21.2378 41.9323 19.4471 44.1897 17.1897C46.4471 14.9323 48.2378 12.2524 49.4594 9.30301C50.5093 6.76833 51.1214 4.07727 51.2727 1.34437C51.3138 0.602667 51.9121 0 52.655 0Z"/>
</mask>
<path d="M52.655 0C53.3978 0 54.0035 0.60257 53.9665 1.34449C53.8126 4.43084 53.1299 7.47135 51.9447 10.3325C50.5879 13.6082 48.5991 16.5847 46.0919 19.0919C43.5847 21.5991 40.6082 23.5879 37.3325 24.9447C34.0567 26.3016 30.5457 27 27 27C23.4543 27 19.9433 26.3016 16.6675 24.9447C13.3918 23.5879 10.4153 21.5991 7.90812 19.0919C5.40093 16.5847 3.41213 13.6082 2.05525 10.3325C0.870144 7.47135 0.18737 4.43084 0.0334944 1.34449C-0.00349528 0.602568 0.602192 -1.90735e-06 1.34503 -1.90735e-06C2.08788 -1.90735e-06 2.68619 0.602665 2.72727 1.34437C2.87863 4.07726 3.49065 6.76833 4.54055 9.30301C5.76224 12.2524 7.55289 14.9323 9.81028 17.1897C12.0677 19.4471 14.7476 21.2378 17.697 22.4594C20.6464 23.6811 23.8076 24.3099 27 24.3099C30.1924 24.3099 33.3536 23.6811 36.303 22.4594C39.2524 21.2378 41.9323 19.4471 44.1897 17.1897C46.4471 14.9323 48.2378 12.2524 49.4594 9.30301C50.5093 6.76833 51.1214 4.07727 51.2727 1.34437C51.3138 0.602667 51.9121 0 52.655 0Z" stroke="#E32111" stroke-width="4" stroke-linecap="round" mask="url(#path-1-inside-1_11_7)"/>
</svg>
