<svg width="24" height="24" viewBox="0 0 24 24" fill="none" xmlns="http://www.w3.org/2000/svg">
<g clip-path="url(#clip0_11_78)">
<path d="M11.9991 20.7184C11.9971 20.7184 11.9949 20.7184 11.9927 20.7184C11.2685 20.7135 4.8664 20.6551 3.05256 20.1645C1.78492 19.8238 0.784242 18.8242 0.442567 17.5564C-0.0320436 15.7746 -0.00183118 12.3441 0.00146472 12.0701C-0.00164807 11.7975 -0.0322268 8.33863 0.441102 6.54218C0.441651 6.54053 0.442017 6.5387 0.442567 6.53705C0.780397 5.28369 1.80359 4.25318 3.04944 3.9115C3.05256 3.91058 3.05585 3.90985 3.05897 3.90894C4.8523 3.43762 11.267 3.37994 11.9927 3.375H12.0057C12.7317 3.37994 19.1509 3.43835 20.948 3.92963C22.2124 4.26947 23.2123 5.26776 23.5549 6.53394C24.0473 8.33167 24.0017 11.798 23.9967 12.0907C24.0002 12.3789 24.029 15.7786 23.5571 17.5694C23.5567 17.5712 23.5562 17.5728 23.5558 17.5745C23.214 18.8423 22.2135 19.8419 20.9444 20.183C20.9427 20.1836 20.9409 20.1839 20.9392 20.1845C19.1461 20.6556 12.7312 20.7133 12.0057 20.7184C12.0035 20.7184 12.0013 20.7184 11.9991 20.7184ZM2.25348 7.02302C1.83673 8.60871 1.8761 12.0235 1.87647 12.0579V12.0826C1.86402 13.0296 1.90778 15.7722 2.25367 17.0711C2.42139 17.6931 2.91486 18.1859 3.54072 18.3542C4.87904 18.7162 10.0933 18.83 11.9991 18.8434C13.9098 18.83 19.1318 18.7193 20.4602 18.3717C21.0841 18.2029 21.5759 17.7118 21.7447 17.0891C22.091 15.7711 22.1344 13.0419 22.1217 12.1009C22.1217 12.091 22.1217 12.0811 22.1219 12.0712C22.1391 11.1129 22.1053 8.33827 21.7464 7.02888C21.746 7.02759 21.7456 7.02631 21.7455 7.02503C21.577 6.40027 21.0833 5.90754 20.4575 5.73926C19.1322 5.3769 13.9094 5.26337 11.9991 5.25C10.0897 5.26337 4.87281 5.37397 3.54035 5.72113C2.9264 5.89142 2.42176 6.40174 2.25348 7.02302ZM22.6506 17.3306H22.6511H22.6506ZM9.60939 15.8434V8.24983L16.1719 12.0467L9.60939 15.8434Z" fill="white"/>
</g>
<defs>
<clipPath id="clip0_11_78">
<rect width="24" height="24" fill="white"/>
</clipPath>
</defs>
</svg>
